<svg xmlns="http://www.w3.org/2000/svg" viewBox="0 0 28 28">
  <circle cx="14" cy="14" r="0.74" fill="#000"/>
  <g fill="none" stroke="#000" stroke-linecap="round">
    <g stroke-width="1.6">
      <path d="M14,14 C16,12 18.6,11.7 20.5,12.8 C22.8,14.1 23.6,16.7 22.8,18.9 C21.8,21.8 18.7,23.5 15.6,23" />
    </g>
    <g transform="rotate(60 14 14)" stroke-width="1.5">
      <path d="M14,14 C16,12 18.6,11.7 20.5,12.8 C22.8,14.1 23.6,16.7 22.8,18.9 C21.8,21.8 18.7,23.5 15.6,23" />
    </g>
    <g transform="rotate(120 14 14)" stroke-width="1.4">
      <path d="M14,14 C16,12 18.6,11.7 20.5,12.8 C22.8,14.1 23.6,16.7 22.8,18.9 C21.8,21.8 18.7,23.5 15.6,23" />
    </g>
    <g transform="rotate(180 14 14)" stroke-width="1.3">
      <path d="M14,14 C16,12 18.6,11.7 20.5,12.8 C22.8,14.1 23.6,16.7 22.8,18.9 C21.8,21.8 18.7,23.5 15.6,23" />
    </g>
    <g transform="rotate(240 14 14)" stroke-width="1.2">
      <path d="M14,14 C16,12 18.6,11.7 20.5,12.8 C22.8,14.1 23.6,16.7 22.8,18.9 C21.8,21.8 18.7,23.5 15.6,23" />
    </g>
    <g transform="rotate(300 14 14)" stroke-width="1.3">
      <path d="M14,14 C16,12 18.6,11.7 20.5,12.8 C22.8,14.1 23.6,16.7 22.8,18.9 C21.8,21.8 18.7,23.5 15.6,23" />
    </g>
  </g>
</svg>
